<svg xmlns="http://www.w3.org/2000/svg" viewBox="0 0 1200 2000">
<!-- Background -->
  <rect width="1200" height="2000" fill="#f8f9fa"/>
  
  <!-- Title -->
  <text x="600" y="50" font-family="Arial" font-size="24" text-anchor="middle" fill="#333">Syllabus Parser App - Wireframes</text>
  
  <!-- Upload Screen -->
  <rect x="100" y="100" width="450" height="550" rx="10" ry="10" fill="#fff" stroke="#ddd" stroke-width="2"/>
  <text x="325" y="130" font-family="Arial" font-size="18" text-anchor="middle" fill="#333">Upload Screen</text>
  
  <!-- Header -->
  <rect x="120" y="150" width="410" height="60" fill="#f5f5f5" stroke="#ddd" stroke-width="1"/>
  <text x="325" y="185" font-family="Arial" font-size="16" text-anchor="middle" fill="#333">Syllabus Parser</text>
  
  <!-- Upload Box -->
  <rect x="170" y="240" width="310" height="200" rx="5" ry="5" fill="#fff" stroke="#aaa" stroke-dasharray="5,5" stroke-width="2"/>
  <text x="325" y="300" font-family="Arial" font-size="14" text-anchor="middle" fill="#666">Drag &amp; Drop Syllabus PDF here</text>
  <text x="325" y="325" font-family="Arial" font-size="14" text-anchor="middle" fill="#666">or</text>
  <rect x="245" y="345" width="160" height="40" rx="5" ry="5" fill="#f0f0f0" stroke="#ccc" stroke-width="1"/>
  <text x="325" y="370" font-family="Arial" font-size="14" text-anchor="middle" fill="#333">Browse Files</text>
  
  <!-- Upload Button -->
  <rect x="220" y="470" width="210" height="50" rx="25" ry="25" fill="#4285f4" stroke="none"/>
  <text x="325" y="500" font-family="Arial" font-size="16" text-anchor="middle" fill="#fff">Upload Syllabus</text>
  
  <!-- Progress Indicator -->
  <rect x="170" y="550" width="310" height="30" rx="15" ry="15" fill="#f5f5f5" stroke="#ddd" stroke-width="1"/>
  <rect x="170" y="550" width="100" height="30" rx="15" ry="15" fill="#4285f4" stroke="none"/>
  <text x="325" y="570" font-family="Arial" font-size="12" text-anchor="middle" fill="#666">Step 1 of 3: Upload</text>
  
  
  <!-- Extraction Screen -->
  <rect x="650" y="100" width="450" height="550" rx="10" ry="10" fill="#fff" stroke="#ddd" stroke-width="2"/>
  <text x="875" y="130" font-family="Arial" font-size="18" text-anchor="middle" fill="#333">Extraction Review Screen</text>
  
  <!-- Header -->
  <rect x="670" y="150" width="410" height="60" fill="#f5f5f5" stroke="#ddd" stroke-width="1"/>
  <text x="875" y="185" font-family="Arial" font-size="16" text-anchor="middle" fill="#333">Review Extracted Information</text>
  
  <!-- Extracted Data Table -->
  <rect x="670" y="240" width="410" height="310" fill="#fff" stroke="#ddd" stroke-width="1"/>
  
  <!-- Table Header -->
  <rect x="670" y="240" width="410" height="40" fill="#f5f5f5" stroke="#ddd" stroke-width="1"/>
  <text x="700" y="265" font-family="Arial" font-size="14" text-anchor="start" fill="#333">Date</text>
  <text x="800" y="265" font-family="Arial" font-size="14" text-anchor="start" fill="#333">Event</text>
  <text x="950" y="265" font-family="Arial" font-size="14" text-anchor="start" fill="#333">Type</text>
  <text x="1040" y="265" font-family="Arial" font-size="14" text-anchor="start" fill="#333">Actions</text>
  
  <!-- Table Rows -->
  <rect x="670" y="280" width="410" height="40" fill="#fff" stroke="#ddd" stroke-width="1"/>
  <text x="700" y="305" font-family="Arial" font-size="12" text-anchor="start" fill="#333">09/15/2025</text>
  <text x="800" y="305" font-family="Arial" font-size="12" text-anchor="start" fill="#333">Midterm Exam</text>
  <text x="950" y="305" font-family="Arial" font-size="12" text-anchor="start" fill="#333">Exam</text>
  <rect x="1040" y="290" width="20" height="20" fill="#fff" stroke="#aaa" stroke-width="1"/>
  
  <rect x="670" y="320" width="410" height="40" fill="#f9f9f9" stroke="#ddd" stroke-width="1"/>
  <text x="700" y="345" font-family="Arial" font-size="12" text-anchor="start" fill="#333">10/01/2025</text>
  <text x="800" y="345" font-family="Arial" font-size="12" text-anchor="start" fill="#333">Project Deadline</text>
  <text x="950" y="345" font-family="Arial" font-size="12" text-anchor="start" fill="#333">Assignment</text>
  <rect x="1040" y="330" width="20" height="20" fill="#fff" stroke="#aaa" stroke-width="1"/>
  
  <rect x="670" y="360" width="410" height="40" fill="#fff" stroke="#ddd" stroke-width="1"/>
  <text x="700" y="385" font-family="Arial" font-size="12" text-anchor="start" fill="#333">10/15/2025</text>
  <text x="800" y="385" font-family="Arial" font-size="12" text-anchor="start" fill="#333">Reading Ch. 5-7</text>
  <text x="950" y="385" font-family="Arial" font-size="12" text-anchor="start" fill="#333">Reading</text>
  <rect x="1040" y="370" width="20" height="20" fill="#fff" stroke="#aaa" stroke-width="1"/>
  
  <rect x="670" y="400" width="410" height="40" fill="#f9f9f9" stroke="#ddd" stroke-width="1"/>
  <text x="700" y="425" font-family="Arial" font-size="12" text-anchor="start" fill="#333">11/20/2025</text>
  <text x="800" y="425" font-family="Arial" font-size="12" text-anchor="start" fill="#333">Final Exam</text>
  <text x="950" y="425" font-family="Arial" font-size="12" text-anchor="start" fill="#333">Exam</text>
  <rect x="1040" y="410" width="20" height="20" fill="#fff" stroke="#aaa" stroke-width="1"/>
  
  <rect x="670" y="440" width="410" height="40" fill="#fff" stroke="#ddd" stroke-width="1"/>
  <text x="700" y="465" font-family="Arial" font-size="12" text-anchor="start" fill="#333">12/05/2025</text>
  <text x="800" y="465" font-family="Arial" font-size="12" text-anchor="start" fill="#333">Term Paper Due</text>
  <text x="950" y="465" font-family="Arial" font-size="12" text-anchor="start" fill="#333">Assignment</text>
  <rect x="1040" y="450" width="20" height="20" fill="#fff" stroke="#aaa" stroke-width="1"/>
  
  <!-- Add New Event Button -->
  <rect x="670" y="500" width="410" height="40" fill="#f5f5f5" stroke="#ddd" stroke-width="1"/>
  <text x="875" y="525" font-family="Arial" font-size="14" text-anchor="middle" fill="#333">+ Add Missing Event</text>
  
  <!-- Validation Button -->
  <rect x="770" y="560" width="210" height="50" rx="25" ry="25" fill="#4285f4" stroke="none"/>
  <text x="875" y="590" font-family="Arial" font-size="16" text-anchor="middle" fill="#fff">Continue to Calendar</text>
  
  <!-- Progress Indicator -->
  <rect x="720" y="620" width="310" height="30" rx="15" ry="15" fill="#f5f5f5" stroke="#ddd" stroke-width="1"/>
  <rect x="720" y="620" width="205" height="30" rx="15" ry="15" fill="#4285f4" stroke="none"/>
  <text x="875" y="640" font-family="Arial" font-size="12" text-anchor="middle" fill="#666">Step 2 of 3: Review</text>
  
  
  <!-- Calendar Integration Screen -->
  <rect x="100" y="700" width="450" height="600" rx="10" ry="10" fill="#fff" stroke="#ddd" stroke-width="2"/>
  <text x="325" y="730" font-family="Arial" font-size="18" text-anchor="middle" fill="#333">Calendar Integration Screen</text>
  
  <!-- Header -->
  <rect x="120" y="750" width="410" height="60" fill="#f5f5f5" stroke="#ddd" stroke-width="1"/>
  <text x="325" y="785" font-family="Arial" font-size="16" text-anchor="middle" fill="#333">Connect to Your Calendar</text>
  
  <!-- Calendar Selection -->
  <text x="140" y="835" font-family="Arial" font-size="14" text-anchor="start" fill="#333">Select Calendar Service:</text>
  
  <!-- Google Calendar Option -->
  <rect x="140" y="850" width="370" height="50" rx="5" ry="5" fill="#fff" stroke="#ddd" stroke-width="1"/>
  <circle cx="160" cy="875" r="10" fill="#fff" stroke="#aaa" stroke-width="1"/>
  <circle cx="160" cy="875" r="5" fill="#4285f4" stroke="none"/>
  <text x="190" y="880" font-family="Arial" font-size="14" text-anchor="start" fill="#333">Google Calendar</text>
  
  <!-- Apple Calendar Option -->
  <rect x="140" y="910" width="370" height="50" rx="5" ry="5" fill="#fff" stroke="#ddd" stroke-width="1"/>
  <circle cx="160" cy="935" r="10" fill="#fff" stroke="#aaa" stroke-width="1"/>
  <text x="190" y="940" font-family="Arial" font-size="14" text-anchor="start" fill="#333">Apple Calendar</text>
  
  <!-- Outlook Calendar Option -->
  <rect x="140" y="970" width="370" height="50" rx="5" ry="5" fill="#fff" stroke="#ddd" stroke-width="1"/>
  <circle cx="160" cy="995" r="10" fill="#fff" stroke="#aaa" stroke-width="1"/>
  <text x="190" y="1000" font-family="Arial" font-size="14" text-anchor="start" fill="#333">Microsoft Outlook</text>
  
  <!-- Calendar Settings -->
  <text x="140" y="1050" font-family="Arial" font-size="14" text-anchor="start" fill="#333">Calendar Settings:</text>
  
  <!-- Calendar Name -->
  <text x="140" y="1080" font-family="Arial" font-size="12" text-anchor="start" fill="#333">Calendar Name:</text>
  <rect x="140" y="1090" width="370" height="40" rx="5" ry="5" fill="#fff" stroke="#ddd" stroke-width="1"/>
  <text x="155" y="1115" font-family="Arial" font-size="12" text-anchor="start" fill="#666">Fall 2025 Courses</text>
  
  <!-- Color Coding -->
  <text x="140" y="1150" font-family="Arial" font-size="12" text-anchor="start" fill="#333">Color Coding:</text>
  <rect x="140" y="1160" width="370" height="40" rx="5" ry="5" fill="#fff" stroke="#ddd" stroke-width="1"/>
  <text x="155" y="1185" font-family="Arial" font-size="12" text-anchor="start" fill="#666">By Event Type (Default)</text>
  
  <!-- Add to Calendar Button -->
  <rect x="220" y="1220" width="210" height="50" rx="25" ry="25" fill="#4285f4" stroke="none"/>
  <text x="325" y="1250" font-family="Arial" font-size="16" text-anchor="middle" fill="#fff">Add to Calendar</text>
  
  <!-- Progress Indicator -->
  <rect x="170" y="1290" width="310" height="30" rx="15" ry="15" fill="#f5f5f5" stroke="#ddd" stroke-width="1"/>
  <rect x="170" y="1290" width="310" height="30" rx="15" ry="15" fill="#4285f4" stroke="none"/>
  <text x="325" y="1310" font-family="Arial" font-size="12" text-anchor="middle" fill="#fff">Step 3 of 3: Calendar</text>
  
  
  <!-- Smart Scheduling Screen -->
  <rect x="650" y="700" width="450" height="600" rx="10" ry="10" fill="#fff" stroke="#ddd" stroke-width="2"/>
  <text x="875" y="730" font-family="Arial" font-size="18" text-anchor="middle" fill="#333">Smart Scheduling Screen</text>
  
  <!-- Header -->
  <rect x="670" y="750" width="410" height="60" fill="#f5f5f5" stroke="#ddd" stroke-width="1"/>
  <text x="875" y="785" font-family="Arial" font-size="16" text-anchor="middle" fill="#333">Smart Scheduling</text>
  
  <!-- Notification Settings -->
  <text x="690" y="835" font-family="Arial" font-size="14" text-anchor="start" fill="#333">Notification Preferences:</text>
  
  <!-- Assignment Notifications -->
  <rect x="690" y="850" width="370" height="70" rx="5" ry="5" fill="#fff" stroke="#ddd" stroke-width="1"/>
  <text x="710" y="875" font-family="Arial" font-size="13" text-anchor="start" fill="#333">Assignments</text>
  <text x="710" y="895" font-family="Arial" font-size="12" text-anchor="start" fill="#666">Start: 3 days before</text>
  <text x="850" y="895" font-family="Arial" font-size="12" text-anchor="start" fill="#666">Reminders: Daily</text>
  
  <!-- Exam Notifications -->
  <rect x="690" y="930" width="370" height="70" rx="5" ry="5" fill="#fff" stroke="#ddd" stroke-width="1"/>
  <text x="710" y="955" font-family="Arial" font-size="13" text-anchor="start" fill="#333">Exams</text>
  <text x="710" y="975" font-family="Arial" font-size="12" text-anchor="start" fill="#666">Start: 1 week before</text>
  <text x="850" y="975" font-family="Arial" font-size="12" text-anchor="start" fill="#666">Reminders: Daily</text>
  
  <!-- Reading Notifications -->
  <rect x="690" y="1010" width="370" height="70" rx="5" ry="5" fill="#fff" stroke="#ddd" stroke-width="1"/>
  <text x="710" y="1035" font-family="Arial" font-size="13" text-anchor="start" fill="#333">Readings</text>
  <text x="710" y="1055" font-family="Arial" font-size="12" text-anchor="start" fill="#666">Start: 2 days before</text>
  <text x="850" y="1055" font-family="Arial" font-size="12" text-anchor="start" fill="#666">Reminders: Once</text>
  
  <!-- Notification Channels -->
  <text x="690" y="1100" font-family="Arial" font-size="14" text-anchor="start" fill="#333">Notification Channels:</text>
  
  <!-- In-App -->
  <rect x="690" y="1120" width="110" height="40" rx="5" ry="5" fill="#fff" stroke="#ddd" stroke-width="1"/>
  <rect x="705" y="1130" width="20" height="20" fill="#fff" stroke="#aaa" stroke-width="1"/>
  <rect x="705" y="1130" width="20" height="20" fill="#4285f4" stroke="none"/>
  <text x="705" y="1130" font-family="Arial" font-size="14" text-anchor="start" fill="#fff">✓</text>
  <text x="735" y="1145" font-family="Arial" font-size="12" text-anchor="start" fill="#333">In-App</text>
  
  <!-- Email -->
  <rect x="810" y="1120" width="110" height="40" rx="5" ry="5" fill="#fff" stroke="#ddd" stroke-width="1"/>
  <rect x="825" y="1130" width="20" height="20" fill="#fff" stroke="#aaa" stroke-width="1"/>
  <text x="855" y="1145" font-family="Arial" font-size="12" text-anchor="start" fill="#333">Email</text>
  
  <!-- Push -->
  <rect x="930" y="1120" width="110" height="40" rx="5" ry="5" fill="#fff" stroke="#ddd" stroke-width="1"/>
  <rect x="945" y="1130" width="20" height="20" fill="#fff" stroke="#aaa" stroke-width="1"/>
  <rect x="945" y="1130" width="20" height="20" fill="#4285f4" stroke="none"/>
  <text x="945" y="1130" font-family="Arial" font-size="14" text-anchor="start" fill="#fff">✓</text>
  <text x="975" y="1145" font-family="Arial" font-size="12" text-anchor="start" fill="#333">Push</text>
  
  <!-- Save Button -->
  <rect x="770" y="1180" width="210" height="50" rx="25" ry="25" fill="#4285f4" stroke="none"/>
  <text x="875" y="1210" font-family="Arial" font-size="16" text-anchor="middle" fill="#fff">Save Preferences</text>
  
  <!-- Dashboard Nav -->
  <rect x="370" y="1370" width="460" height="80" rx="10" ry="10" fill="#fff" stroke="#ddd" stroke-width="2"/>
  <line x1="485" y1="1370" x2="485" y2="1450" stroke="#ddd" stroke-width="1"/>
  <line x1="600" y1="1370" x2="600" y2="1450" stroke="#ddd" stroke-width="1"/>
  <line x1="715" y1="1370" x2="715" y2="1450" stroke="#ddd" stroke-width="1"/>
  
  <text x="425" y="1410" font-family="Arial" font-size="12" text-anchor="middle" fill="#4285f4">Upload</text>
  <text x="540" y="1410" font-family="Arial" font-size="12" text-anchor="middle" fill="#666">Extract</text>
  <text x="655" y="1410" font-family="Arial" font-size="12" text-anchor="middle" fill="#666">Calendar</text>
  <text x="775" y="1410" font-family="Arial" font-size="12" text-anchor="middle" fill="#666">Schedule</text>
  
  <!-- Mobile View -->
  <rect x="375" y="1470" width="450" height="450" rx="10" ry="10" fill="#fff" stroke="#ddd" stroke-width="2"/>
  <text x="600" y="1500" font-family="Arial" font-size="18" text-anchor="middle" fill="#333">Mobile View (Upload)</text>
  
  <!-- Mobile Header -->
  <rect x="375" y="1520" width="450" height="50" fill="#f5f5f5" stroke="#ddd" stroke-width="1"/>
  <text x="600" y="1550" font-family="Arial" font-size="16" text-anchor="middle" fill="#333">Syllabus Parser</text>
  
  <!-- Mobile Upload Area -->
  <rect x="425" y="1590" width="350" height="150" rx="5" ry="5" fill="#fff" stroke="#aaa" stroke-dasharray="5,5" stroke-width="2"/>
  <text x="600" y="1650" font-family="Arial" font-size="14" text-anchor="middle" fill="#666">Tap to Upload Syllabus</text>
  
  <!-- Mobile Button -->
  <rect x="475" y="1770" width="250" height="50" rx="25" ry="25" fill="#4285f4" stroke="none"/>
  <text x="600" y="1800" font-family="Arial" font-size="16" text-anchor="middle" fill="#fff">Upload</text>
  
  <!-- Mobile Progress -->
  <rect x="425" y="1840" width="350" height="30" rx="15" ry="15" fill="#f5f5f5" stroke="#ddd" stroke-width="1"/>
  <rect x="425" y="1840" width="116" height="30" rx="15" ry="15" fill="#4285f4" stroke="none"/>
  <text x="600" y="1860" font-family="Arial" font-size="12" text-anchor="middle" fill="#666">Step 1 of 3</text>
</svg>